<mxfile host="www.draw.io" modified="2020-01-02T13:16:41.735Z" agent="Mozilla/5.0 (X11; Ubuntu; Linux x86_64; rv:70.0) Gecko/20100101 Firefox/70.0" etag="DgSbL6wHT9FLw1iBHn9K" version="12.4.8" type="gitlab">
  <diagram id="GdGLMfevB64v4QgqyTME" name="Page-1">
    <mxGraphModel dx="1408" dy="1816" grid="1" gridSize="10" guides="1" tooltips="1" connect="1" arrows="1" fold="1" page="1" pageScale="1" pageWidth="850" pageHeight="1100" math="0" shadow="0">
      <root>
        <mxCell id="0"/>
        <mxCell id="1" style="" parent="0"/>
        <mxCell id="LlLVEiTdEuNXF2CMYThY-5" value="" style="rounded=0;whiteSpace=wrap;html=1;fillColor=#f5f5f5;strokeColor=#666666;gradientColor=#CCCCCC;" vertex="1" parent="1">
          <mxGeometry x="0.33" y="30.11" width="669.67" height="549.89" as="geometry"/>
        </mxCell>
        <mxCell id="LlLVEiTdEuNXF2CMYThY-8" value="&lt;div align=&quot;left&quot;&gt;&lt;p&gt;&lt;font style=&quot;font-size: 18px&quot; face=&quot;Helvetica&quot;&gt;lirejarp template&lt;/font&gt;&lt;/p&gt;&lt;/div&gt;" style="rounded=0;whiteSpace=wrap;html=1;fontFamily=Comic Sans MS;" vertex="1" parent="1">
          <mxGeometry x="0.33" width="149.67" height="30.11" as="geometry"/>
        </mxCell>
        <mxCell id="LlLVEiTdEuNXF2CMYThY-14" value="parts" parent="0"/>
        <mxCell id="LlLVEiTdEuNXF2CMYThY-24" value="" style="rounded=0;whiteSpace=wrap;html=1;fontFamily=Comic Sans MS;fillColor=#d5e8d4;strokeColor=#82b366;gradientColor=#97d077;" vertex="1" parent="LlLVEiTdEuNXF2CMYThY-14">
          <mxGeometry x="31" y="97" width="329" height="459.5" as="geometry"/>
        </mxCell>
        <mxCell id="LlLVEiTdEuNXF2CMYThY-33" value="&lt;div&gt;&lt;br&gt;&lt;/div&gt;&lt;div&gt;&lt;br&gt;&lt;ul&gt;&lt;li&gt;&lt;font style=&quot;font-size: 14px&quot; face=&quot;Helvetica&quot;&gt;Maven tomee plugin to configure tomee&lt;/font&gt;&lt;/li&gt;&lt;li&gt;&lt;font style=&quot;font-size: 14px&quot; face=&quot;Helvetica&quot;&gt;Maven profiles for h2 and MySQL&lt;br&gt;&lt;/font&gt;&lt;/li&gt;&lt;/ul&gt;&lt;/div&gt;&lt;blockquote&gt;&lt;div&gt;&lt;div&gt;&lt;font style=&quot;font-size: 14px&quot; face=&quot;Helvetica&quot;&gt;&lt;br&gt;&lt;/font&gt;&lt;/div&gt;&lt;/div&gt;&lt;/blockquote&gt;" style="rounded=0;whiteSpace=wrap;html=1;fontFamily=Comic Sans MS;fillColor=#d5e8d4;strokeColor=#82b366;gradientColor=#97d077;align=left;verticalAlign=middle;" vertex="1" parent="LlLVEiTdEuNXF2CMYThY-14">
          <mxGeometry x="380" y="100" width="270" height="70" as="geometry"/>
        </mxCell>
        <mxCell id="LlLVEiTdEuNXF2CMYThY-36" value="&lt;div style=&quot;font-size: 16px&quot; align=&quot;left&quot;&gt;&lt;font style=&quot;font-size: 16px&quot;&gt;Tomee&lt;/font&gt;&lt;/div&gt;" style="rounded=0;whiteSpace=wrap;html=1;fontFamily=Helvetica;fontSize=18;align=left;" vertex="1" parent="LlLVEiTdEuNXF2CMYThY-14">
          <mxGeometry x="380" y="70" width="90" height="30" as="geometry"/>
        </mxCell>
        <mxCell id="LlLVEiTdEuNXF2CMYThY-37" value="&lt;font style=&quot;font-size: 14px&quot; face=&quot;Helvetica&quot;&gt;Ant scripts for maven build&lt;/font&gt;&lt;br&gt;" style="rounded=0;whiteSpace=wrap;html=1;fontFamily=Comic Sans MS;fillColor=#d5e8d4;strokeColor=#82b366;gradientColor=#97d077;shadow=0;" vertex="1" parent="LlLVEiTdEuNXF2CMYThY-14">
          <mxGeometry x="380" y="230" width="270" height="70" as="geometry"/>
        </mxCell>
        <mxCell id="LlLVEiTdEuNXF2CMYThY-38" value="&lt;font style=&quot;font-size: 16px&quot;&gt;Dev-Tools&lt;/font&gt;" style="rounded=0;whiteSpace=wrap;html=1;fontFamily=Helvetica;fontSize=18;align=left;" vertex="1" parent="LlLVEiTdEuNXF2CMYThY-14">
          <mxGeometry x="380" y="200" width="90" height="30" as="geometry"/>
        </mxCell>
        <mxCell id="LlLVEiTdEuNXF2CMYThY-40" value="" style="rounded=0;whiteSpace=wrap;html=1;dashed=1;strokeWidth=2;fontFamily=Helvetica;fontSize=18;align=left;fillColor=none;strokeColor=#003300;" vertex="1" parent="LlLVEiTdEuNXF2CMYThY-14">
          <mxGeometry x="40" y="170" width="300" height="370" as="geometry"/>
        </mxCell>
        <mxCell id="LlLVEiTdEuNXF2CMYThY-42" style="rounded=0;orthogonalLoop=1;jettySize=auto;html=1;entryX=1;entryY=0;entryDx=0;entryDy=0;fontFamily=Helvetica;fontSize=18;endArrow=none;endFill=0;strokeColor=#003300;strokeWidth=2;" edge="1" parent="LlLVEiTdEuNXF2CMYThY-14" target="LlLVEiTdEuNXF2CMYThY-40">
          <mxGeometry relative="1" as="geometry">
            <mxPoint x="330" y="130" as="sourcePoint"/>
          </mxGeometry>
        </mxCell>
        <mxCell id="LlLVEiTdEuNXF2CMYThY-41" value="&lt;font color=&quot;#003300&quot;&gt;lirejarp.war&lt;/font&gt;" style="text;html=1;strokeColor=none;fillColor=none;align=center;verticalAlign=middle;whiteSpace=wrap;rounded=0;dashed=1;fontFamily=Helvetica;fontSize=18;" vertex="1" parent="LlLVEiTdEuNXF2CMYThY-14">
          <mxGeometry x="286" y="106.5" width="40" height="20" as="geometry"/>
        </mxCell>
        <mxCell id="LlLVEiTdEuNXF2CMYThY-43" value="&lt;h1 style=&quot;font-size: 17px&quot;&gt;&lt;font style=&quot;font-size: 17px&quot;&gt;Project Template for Code Generation&lt;/font&gt;&lt;/h1&gt;" style="text;html=1;strokeColor=none;fillColor=none;spacing=5;spacingTop=-20;whiteSpace=wrap;overflow=hidden;rounded=0;dashed=1;fontFamily=Helvetica;fontSize=18;align=left;" vertex="1" parent="LlLVEiTdEuNXF2CMYThY-14">
          <mxGeometry x="415" y="400" width="190" height="120" as="geometry"/>
        </mxCell>
        <mxCell id="LlLVEiTdEuNXF2CMYThY-45" value="&lt;div style=&quot;font-size: 16px&quot; align=&quot;left&quot;&gt;&lt;font style=&quot;font-size: 16px&quot;&gt;Lirejarp&lt;/font&gt;&lt;/div&gt;" style="rounded=0;whiteSpace=wrap;html=1;fontFamily=Helvetica;fontSize=18;align=left;" vertex="1" parent="LlLVEiTdEuNXF2CMYThY-14">
          <mxGeometry x="31" y="67" width="79" height="30" as="geometry"/>
        </mxCell>
        <mxCell id="LlLVEiTdEuNXF2CMYThY-26" value="Components" parent="0"/>
        <mxCell id="LlLVEiTdEuNXF2CMYThY-27" value="packagewar:&#xa;project for creating the entire application" style="shape=component;align=left;spacingLeft=36;gradientColor=#E6E6E6;fontFamily=Helvetica;" vertex="1" parent="LlLVEiTdEuNXF2CMYThY-26">
          <mxGeometry x="50" y="140" width="270" height="60" as="geometry"/>
        </mxCell>
        <mxCell id="LlLVEiTdEuNXF2CMYThY-28" value="webclient:&#xa;GUI with HTML and AngluarJS for CRUD&#xa;operations" style="shape=component;align=left;spacingLeft=36;gradientColor=#E6E6E6;fontFamily=Helvetica;" vertex="1" parent="LlLVEiTdEuNXF2CMYThY-26">
          <mxGeometry x="50" y="221" width="270" height="60" as="geometry"/>
        </mxCell>
        <mxCell id="LlLVEiTdEuNXF2CMYThY-29" value="rest:&#xa;API for accessing business logic &#xa;e.g. from webclient" style="shape=component;align=left;spacingLeft=36;gradientColor=#E6E6E6;fontFamily=Helvetica;" vertex="1" parent="LlLVEiTdEuNXF2CMYThY-26">
          <mxGeometry x="50" y="305" width="270" height="60" as="geometry"/>
        </mxCell>
        <mxCell id="LlLVEiTdEuNXF2CMYThY-30" value="persistence:&#xa;entities and services for database access" style="shape=component;align=left;spacingLeft=36;gradientColor=#E6E6E6;fontFamily=Helvetica;" vertex="1" parent="LlLVEiTdEuNXF2CMYThY-26">
          <mxGeometry x="50" y="390" width="270" height="60" as="geometry"/>
        </mxCell>
        <mxCell id="LlLVEiTdEuNXF2CMYThY-31" value="dbinit:&#xa;database scripts for h2 and MySQL" style="shape=component;align=left;spacingLeft=36;gradientColor=#E6E6E6;fontFamily=Helvetica;" vertex="1" parent="LlLVEiTdEuNXF2CMYThY-26">
          <mxGeometry x="50" y="470" width="270" height="60" as="geometry"/>
        </mxCell>
      </root>
    </mxGraphModel>
  </diagram>
</mxfile>
